# xmcd
#
# Track frame offsets:
#	187
#	13537
#	20962
#	31537
#	40762
#	49987
#	59962
#	71812
#	82687
#	94012
#	105187
#	114562
#	128062
#	138712
#	156787
#	166087
#
# Disc length: 2359 seconds
#
# Revision: 1
# Processed by: cddbd v1.5.1PL2 Copyright (c) Steve Scherf et al.
# Submitted via: audiograbber 1.83.01
#
DISCID=cd093510
DTITLE=Varios - The Best Beat CD1
DYEAR=1900
DGENRE=Pop
TTITLE0=Gerry and The Pacemakers - How Do You Do It
TTITLE1=The Troggs - Wild Thing
TTITLE2=Billy J. Kramer - Bad To me
TTITLE3=Herman's Hermits - Silhouettes
TTITLE4=Wayne Fontana - Groovy Kind Of Love
TTITLE5=Freddie and The Dreamers - I'm Telling You Now
TTITLE6=Vanity Fayre - Early In The Morning
TTITLE7=The Merseybeats - Sorrow
TTITLE8=The Zombies - She's Not There
TTITLE9=B. Poole and Tremeloes - Do You Love Me?
TTITLE10=The Fourmost - A Little Loving
TTITLE11=The Foundations - Build Me Up Buttercup
TTITLE12=The Swinging Blue Jeans - You're Not Good
TTITLE13=Marmalade - Reflections Of My Life
TTITLE14=Billy J. Kramer - I'll Keep You Satisfied
TTITLE15=Gerry and The Pacemakers - Ferry Croos The Mersey
EXTD=
EXTT0=
EXTT1=
EXTT2=
EXTT3=
EXTT4=
EXTT5=
EXTT6=
EXTT7=
EXTT8=
EXTT9=
EXTT10=
EXTT11=
EXTT12=
EXTT13=
EXTT14=
EXTT15=
PLAYORDER=
